<?xml version="1.0" encoding="UTF-8" standalone="no"?>
<svg
   xmlns:dc="http://purl.org/dc/elements/1.1/"
   xmlns:cc="http://creativecommons.org/ns#"
   xmlns:rdf="http://www.w3.org/1999/02/22-rdf-syntax-ns#"
   xmlns:svg="http://www.w3.org/2000/svg"
   xmlns="http://www.w3.org/2000/svg"
   xmlns:sodipodi="http://sodipodi.sourceforge.net/DTD/sodipodi-0.dtd"
   xmlns:inkscape="http://www.inkscape.org/namespaces/inkscape"
   width="41px"
   height="56px"
   viewBox="0 0 41 56"
   version="1.1"
   id="svg17"
   sodipodi:docname="logo-deva.svg"
   inkscape:version="0.92.1 r15371">
  <metadata
     id="metadata21">
    <rdf:RDF>
      <cc:Work
         rdf:about="">
        <dc:format>image/svg+xml</dc:format>
        <dc:type
           rdf:resource="http://purl.org/dc/dcmitype/StillImage" />
      </cc:Work>
    </rdf:RDF>
  </metadata>
  <sodipodi:namedview
     pagecolor="#ffffff"
     bordercolor="#666666"
     borderopacity="1"
     objecttolerance="10"
     gridtolerance="10"
     guidetolerance="10"
     inkscape:pageopacity="0"
     inkscape:pageshadow="2"
     inkscape:window-width="1920"
     inkscape:window-height="1043"
     id="namedview19"
     showgrid="false"
     inkscape:zoom="11.9198"
     inkscape:cx="20.974576"
     inkscape:cy="18.508475"
     inkscape:window-x="0"
     inkscape:window-y="0"
     inkscape:window-maximized="1"
     inkscape:current-layer="Devanagari" />
  <!-- Generator: Sketch 43.1 (39012) - http://www.bohemiancoding.com/sketch -->
  <title
     id="title2">Devanagari</title>
  <desc
     id="desc4">Created with Sketch.</desc>
  <defs
     id="defs6" />
  <g
     id="Page-1"
     stroke="none"
     stroke-width="1"
     fill="none"
     fill-rule="evenodd">
    <g
       id="Devanagari"
       fill="#000000">
      <g
         aria-label="द"
         style="font-weight:300;font-size:48px;font-family:Rajdhani-Light, Rajdhani"
         id="द">
        <path
           d="m 18.032,29.776 h 6.912 q 0.432,0 0.432,-0.384 V 23.68 q 0,-0.384 -0.432,-0.384 H 7.952 q -0.432,0 -0.432,-0.384 V 22.48 q 0,-0.384 0.432,-0.384 H 31.568 Q 32,22.096 32,22.48 v 0.432 q 0,0.384 -0.432,0.384 H 27.2 q -0.432,0 -0.432,0.384 v 6.576 q 0,0.864 -0.768,0.864 h -7.968 q -2.4,0 -3.696,1.392 -1.296,1.392 -1.296,3.84 v 4.608 q 0,2.448 1.296,3.84 1.296,1.392 3.696,1.392 h 3.744 q 4.512,0 4.512,-4.272 v -1.44 q 0,-0.432 0.384,-0.432 h 0.576 q 0.384,0 0.384,0.432 V 51.568 Q 27.632,52 27.248,52 h -0.576 q -0.384,0 -0.384,-0.432 v -5.76 h -0.192 q -1.104,1.728 -4.32,1.728 h -3.744 q -2.928,0 -4.704,-1.776 Q 11.6,43.984 11.6,41.008 v -4.704 q 0,-2.976 1.728,-4.752 1.776,-1.776 4.704,-1.776 z"
           style=""
           id="path3695" />
      </g>
      <g
         id="Pen"
         transform="translate(20.013289, 12.013289) scale(-1, -1) rotate(9.000000) translate(-20.013289, -12.013289) translate(9.513289, 1.513289)">
        <path
           d="M19.0127855,6.89939899 C19.1865843,4.27260078 20.4799711,0.814793888 20.4920966,0.78236428 C20.5729333,0.571571832 20.5203894,0.332403477 20.3627579,0.170255439 C20.2051264,0.00810740187 19.9666582,-0.0405370093 19.752441,0.0405370093 C19.7160645,0.0526981121 16.2845478,1.35393611 13.6694814,1.52824525 C13.4390969,1.54446006 13.241047,1.69850069 13.1642522,1.91740054 L11.9638276,5.46438886 C10.1409606,6.48186779 7.88965928,8.28576471 5.73940378,10.4463873 C-0.173798847,16.3931666 -0.428434367,19.6645032 0.278886522,20.3739009 C0.836659565,20.9333116 4.23584166,20.8279154 10.1490443,14.8811361 C12.2992998,12.7164598 14.0898321,10.450441 15.1043323,8.61816819 L18.6328531,7.40611161 C18.8470703,7.33314499 19.00066,7.13045994 19.0127855,6.89939899 Z M1.08725325,19.559107 C0.998332911,19.4699256 1.18425726,16.6890867 6.54777051,11.2652349 C8.55656184,9.23027703 10.6583153,7.54393744 12.3639691,6.56294181 L14.0130373,8.22090549 C13.0349135,9.93156729 11.3535107,12.0394918 9.33663573,14.0663422 C3.95695514,19.478033 1.11554609,19.5834292 1.08725325,19.559107 Z M14.8901152,7.47097082 L13.1036247,5.67518131 L14.1342923,2.64706671 C15.8844062,2.47275757 17.8325701,1.90523944 19.0289528,1.51203045 C18.636895,2.71597963 18.0750801,4.67391718 17.9012812,6.43727708 L14.8901152,7.47097082 Z"
           id="Shape" />
        <path
           d="M15.5368085,4.07802314 C15.3145077,4.30503039 15.3145077,4.66986348 15.5368085,4.89281703 L15.6701891,5.02658916 C15.9167409,5.27791862 16.2805059,5.2252205 16.4825976,5.02658916 C16.7048985,4.79958191 16.7048985,4.43474882 16.4825976,4.21179527 L16.3492171,4.07802314 C16.1228744,3.85101589 15.7591094,3.85101589 15.5368085,4.07802314 Z"
           id="path12" />
      </g>
    </g>
  </g>
</svg>
