<?xml version="1.0" encoding="UTF-8"?>
<svg width="41px" height="56px" viewBox="0 0 41 56" version="1.1" xmlns="http://www.w3.org/2000/svg" xmlns:xlink="http://www.w3.org/1999/xlink">
    <!-- Generator: Sketch 43.1 (39012) - http://www.bohemiancoding.com/sketch -->
    <title>Latin</title>
    <desc>Created with Sketch.</desc>
    <defs></defs>
    <g id="Page-1" stroke="none" stroke-width="1" fill="none" fill-rule="evenodd">
        <g id="Latin" fill="#000000">
            <path d="M23.247,52 L20.065,52 C18.3163246,52 16.9188386,51.469672 15.8725,50.409 C14.8261614,49.348328 14.303,47.9293422 14.303,46.152 L14.303,35.918 C14.303,34.1406578 14.8261614,32.721672 15.8725,31.661 C16.9188386,30.600328 18.3163246,30.07 20.065,30.07 L23.247,30.07 C25.4830112,30.07 27.0023293,30.8153259 27.805,32.306 L27.977,32.306 L27.977,22.158 C27.977,21.8999987 28.0916655,21.771 28.321,21.771 L28.923,21.771 C29.1523345,21.771 29.267,21.8999987 29.267,22.158 L29.267,51.613 C29.267,51.8710013 29.1523345,52 28.923,52 L28.321,52 C28.0916655,52 27.977,51.8710013 27.977,51.613 L27.977,49.764 L27.805,49.764 C27.0023293,51.2546741 25.4830112,52 23.247,52 Z M27.977,46.324 L27.977,35.746 C27.977,34.3126595 27.5326711,33.2090039 26.644,32.435 C25.7553289,31.6609961 24.5943405,31.274 23.161,31.274 L20.065,31.274 C18.6316595,31.274 17.5280039,31.6896625 16.754,32.521 C15.9799961,33.3523375 15.593,34.4989927 15.593,35.961 L15.593,46.109 C15.593,47.5710073 15.9799961,48.7176625 16.754,49.549 C17.5280039,50.3803375 18.6316595,50.796 20.065,50.796 L23.161,50.796 C24.5943405,50.796 25.7553289,50.4090039 26.644,49.635 C27.5326711,48.8609961 27.977,47.7573405 27.977,46.324 Z" id="d"></path>
            <g id="Pen" transform="translate(17.013289, 12.013289) scale(1, -1) rotate(9.000000) translate(-17.013289, -12.013289) translate(6.513289, 1.513289)">
                <path d="M19.0127855,6.89939899 C19.1865843,4.27260078 20.4799711,0.814793888 20.4920966,0.78236428 C20.5729333,0.571571832 20.5203894,0.332403477 20.3627579,0.170255439 C20.2051264,0.00810740187 19.9666582,-0.0405370093 19.752441,0.0405370093 C19.7160645,0.0526981121 16.2845478,1.35393611 13.6694814,1.52824525 C13.4390969,1.54446006 13.241047,1.69850069 13.1642522,1.91740054 L11.9638276,5.46438886 C10.1409606,6.48186779 7.88965928,8.28576471 5.73940378,10.4463873 C-0.173798847,16.3931666 -0.428434367,19.6645032 0.278886522,20.3739009 C0.836659565,20.9333116 4.23584166,20.8279154 10.1490443,14.8811361 C12.2992998,12.7164598 14.0898321,10.450441 15.1043323,8.61816819 L18.6328531,7.40611161 C18.8470703,7.33314499 19.00066,7.13045994 19.0127855,6.89939899 Z M1.08725325,19.559107 C0.998332911,19.4699256 1.18425726,16.6890867 6.54777051,11.2652349 C8.55656184,9.23027703 10.6583153,7.54393744 12.3639691,6.56294181 L14.0130373,8.22090549 C13.0349135,9.93156729 11.3535107,12.0394918 9.33663573,14.0663422 C3.95695514,19.478033 1.11554609,19.5834292 1.08725325,19.559107 Z M14.8901152,7.47097082 L13.1036247,5.67518131 L14.1342923,2.64706671 C15.8844062,2.47275757 17.8325701,1.90523944 19.0289528,1.51203045 C18.636895,2.71597963 18.0750801,4.67391718 17.9012812,6.43727708 L14.8901152,7.47097082 Z" id="Shape"></path>
                <path d="M15.5368085,4.07802314 C15.3145077,4.30503039 15.3145077,4.66986348 15.5368085,4.89281703 L15.6701891,5.02658916 C15.9167409,5.27791862 16.2805059,5.2252205 16.4825976,5.02658916 C16.7048985,4.79958191 16.7048985,4.43474882 16.4825976,4.21179527 L16.3492171,4.07802314 C16.1228744,3.85101589 15.7591094,3.85101589 15.5368085,4.07802314 Z" id="Shape"></path>
            </g>
        </g>
    </g>
</svg>